<svg height="200px" width="200px" version="1.1" id="Capa_1" xmlns="http://www.w3.org/2000/svg" xmlns:xlink="http://www.w3.org/1999/xlink" viewBox="0 0 200 200" xml:space="preserve">
  <defs>
    <!-- Purple gradient for candy -->
    <radialGradient id="candyGrad" cx="40%" cy="35%" r="60%">
      <stop offset="0%" style="stop-color:#D580FF"/>
      <stop offset="40%" style="stop-color:#9B59B6"/>
      <stop offset="100%" style="stop-color:#6C3483"/>
    </radialGradient>
    
    <!-- Stripe clip mask -->
    <clipPath id="candyClip">
      <path d="M181.3,146.4c8-13.9,7.9-31.3-0.1-44.3c-0.2-0.3-0.4-0.7-0.7-1c-0.7-1.1-0.7-2.4,0-3.5c0.2-0.3,0.4-0.7,0.6-1c7.8-12.9,7.6-30-0.4-43.7c-5.4-9.2-14-16.3-23.8-19.6c-4.3-1.5-8.7-2.2-13.1-2.2c-0.4,0-0.7,0-1.1,0c-0.4,0-0.8,0-1.2,0.1c-1.3,0.1-2.5-0.6-3-1.8c-0.2-0.3-0.3-0.6-0.5-1l-0.1-0.2C131,14.9,116,6.4,100,6.4c-16.2,0-31.2,8.6-38.4,21.9l-0.1,0.3c-0.2,0.3-0.3,0.6-0.5,0.9c-0.6,1.1-1.7,1.8-3,1.7c-0.4,0-0.8,0-1.2,0c-0.3,0-0.5,0-0.7,0c-4.5,0-9.1,0.8-13.5,2.4c-9.8,3.4-18.5,10.7-23.8,20c-8,13.9-7.9,31.3,0.1,44.3c0.2,0.4,0.4,0.7,0.7,1c0.7,1.1,0.7,2.4,0,3.5c-0.2,0.3-0.4,0.7-0.6,1c-7.8,12.9-7.6,30,0.4,43.7c5.4,9.2,14,16.3,23.8,19.6c4.7,1.6,9.5,2.3,14.2,2.2c0.4,0,0.8,0,1.2-0.1c0.1,0,0.1,0,0.2,0c1.2,0,2.3,0.7,2.9,1.8c0.2,0.3,0.3,0.6,0.5,0.9l0.1,0.2C69,185.1,84,193.6,100,193.6c16.2,0,31.2-8.6,38.4-21.9l0.1-0.3c0.2-0.3,0.3-0.6,0.5-0.9c0.6-1.1,1.7-1.8,3-1.7c0.4,0,0.8,0,1.2,0c0.3,0,0.5,0,0.7,0c4.5,0,9.1-0.8,13.6-2.4C167.3,163,176,155.6,181.3,146.4z"/>
    </clipPath>
  </defs>

  <g id="SVGRepo_bgCarrier" stroke-width="0"></g>
  <g id="SVGRepo_tracerCarrier" stroke-linecap="round" stroke-linejoin="round"></g>
  <g id="SVGRepo_iconCarrier">
    <g>
      <!-- Candy body with gradient -->
      <path style="fill:url(#candyGrad);" d="M181.3,146.4c8-13.9,7.9-31.3-0.1-44.3c-0.2-0.3-0.4-0.7-0.7-1c-0.7-1.1-0.7-2.4,0-3.5c0.2-0.3,0.4-0.7,0.6-1c7.8-12.9,7.6-30-0.4-43.7c-5.4-9.2-14-16.3-23.8-19.6c-4.3-1.5-8.7-2.2-13.1-2.2c-0.4,0-0.7,0-1.1,0c-0.4,0-0.8,0-1.2,0.1c-1.3,0.1-2.5-0.6-3-1.8c-0.2-0.3-0.3-0.6-0.5-1l-0.1-0.2C131,14.9,116,6.4,100,6.4c-16.2,0-31.2,8.6-38.4,21.9l-0.1,0.3c-0.2,0.3-0.3,0.6-0.5,0.9c-0.6,1.1-1.7,1.8-3,1.7c-0.4,0-0.8,0-1.2,0c-0.3,0-0.5,0-0.7,0c-4.5,0-9.1,0.8-13.5,2.4c-9.8,3.4-18.5,10.7-23.8,20c-8,13.9-7.9,31.3,0.1,44.3c0.2,0.4,0.4,0.7,0.7,1c0.7,1.1,0.7,2.4,0,3.5c-0.2,0.3-0.4,0.7-0.6,1c-7.8,12.9-7.6,30,0.4,43.7c5.4,9.2,14,16.3,23.8,19.6c4.7,1.6,9.5,2.3,14.2,2.2c0.4,0,0.8,0,1.2-0.1c0.1,0,0.1,0,0.2,0c1.2,0,2.3,0.7,2.9,1.8c0.2,0.3,0.3,0.6,0.5,0.9l0.1,0.2C69,185.1,84,193.6,100,193.6c16.2,0,31.2-8.6,38.4-21.9l0.1-0.3c0.2-0.3,0.3-0.6,0.5-0.9c0.6-1.1,1.7-1.8,3-1.7c0.4,0,0.8,0,1.2,0c0.3,0,0.5,0,0.7,0c4.5,0,9.1-0.8,13.6-2.4C167.3,163,176,155.6,181.3,146.4z"></path>
      
      <!-- VERTICAL White Stripes (Candy Crush Style) -->
      <g clip-path="url(#candyClip)">
        <!-- Vertical Stripe 1 -->
        <rect x="30" y="10" width="8" height="190" fill="#FFFFFF" opacity="0.85"/>
        <!-- Vertical Stripe 2 -->
        <rect x="48" y="10" width="8" height="190" fill="#FFFFFF" opacity="0.9"/>
        <!-- Vertical Stripe 3 -->
        <rect x="66" y="10" width="8" height="190" fill="#FFFFFF" opacity="0.85"/>
        <!-- Vertical Stripe 4 -->
        <rect x="84" y="10" width="8" height="190" fill="#FFFFFF" opacity="0.9"/>
        <!-- Vertical Stripe 5 -->
        <rect x="102" y="10" width="8" height="190" fill="#FFFFFF" opacity="0.85"/>
        <!-- Vertical Stripe 6 -->
        <rect x="120" y="10" width="8" height="190" fill="#FFFFFF" opacity="0.9"/>
        <!-- Vertical Stripe 7 -->
        <rect x="138" y="10" width="8" height="190" fill="#FFFFFF" opacity="0.85"/>
        <!-- Vertical Stripe 8 -->
        <rect x="156" y="10" width="8" height="190" fill="#FFFFFF" opacity="0.8"/>
      </g>
      
      <!-- Shine highlight overlay -->
      <ellipse cx="80" cy="70" rx="35" ry="25" fill="rgba(255,255,255,0.15)" transform="rotate(-30, 80, 70)"/>
      
      <!-- Original center details -->
      <path style="fill:#D580FF;" d="M100,85.4c-8,0-14.6,6.5-14.6,14.6s6.5,14.6,14.6,14.6 s14.6-6.5,14.6-14.6S108,85.4,100,85.4z"></path>
      <path style="fill:#6C3483;" d="M100,79c-11.6,0-21,9.4-21,21s9.4,21,21,21s21-9.4,21-21S111.6,79,100,79z M100,114.6c-8,0-14.6-6.5-14.6-14.6s6.5-14.6,14.6-14.6s14.6,6.5,14.6,14.6S108,114.6,100,114.6z"></path>
      
      <!-- Sugar sparkles -->
      <circle cx="55" cy="50" r="1.5" fill="white" opacity="0.8"/>
      <circle cx="145" cy="55" r="1.5" fill="white" opacity="0.8"/>
      <circle cx="60" cy="140" r="1.5" fill="white" opacity="0.8"/>
      <circle cx="140" cy="145" r="1.5" fill="white" opacity="0.8"/>
      <circle cx="80" cy="35" r="1" fill="white" opacity="0.6"/>
      <circle cx="120" cy="160" r="1" fill="white" opacity="0.6"/>
      <circle cx="70" cy="90" r="1" fill="white" opacity="0.5"/>
      <circle cx="130" cy="100" r="1" fill="white" opacity="0.5"/>
      
      <!-- Wrapper twist lines -->
      <path style="fill:none; stroke:#D580FF; stroke-width:2.5;" d="M68,40 Q60,30 55,35"></path>
      <path style="fill:none; stroke:#D580FF; stroke-width:2.5;" d="M132,40 Q140,30 145,35"></path>
      <path style="fill:none; stroke:#6C3483; stroke-width:2;" d="M65,42 Q58,33 52,38"></path>
      <path style="fill:none; stroke:#6C3483; stroke-width:2;" d="M135,42 Q142,33 148,38"></path>
    </g>
  </g>
</svg>