<svg width="200" height="200" viewBox="0 0 200 200" xmlns="http://www.w3.org/2000/svg">
  <defs>
    <!-- Main Candy Gradient - Bright lime-green to deep emerald-green -->
    <radialGradient id="candyGradient" cx="40%" cy="35%" r="65%" fx="35%" fy="30%">
      <stop offset="0%" stop-color="#a8ff4d"/>
      <stop offset="25%" stop-color="#6bed00"/>
      <stop offset="50%" stop-color="#49e000"/>
      <stop offset="75%" stop-color="#1a9e00"/>
      <stop offset="100%" stop-color="#008a00"/>
    </radialGradient>
    
    <!-- Glossy Primary Shine -->
    <radialGradient id="primaryShine" cx="30%" cy="25%" r="45%">
      <stop offset="0%" stop-color="white" stop-opacity="0.6"/>
      <stop offset="40%" stop-color="white" stop-opacity="0.2"/>
      <stop offset="100%" stop-color="white" stop-opacity="0"/>
    </radialGradient>
    
    <!-- Subtle Side Reflection -->
    <linearGradient id="sideReflection" x1="0%" y1="0%" x2="100%" y2="0%">
      <stop offset="85%" stop-color="white" stop-opacity="0"/>
      <stop offset="92%" stop-color="white" stop-opacity="0.12"/>
      <stop offset="100%" stop-color="white" stop-opacity="0"/>
    </linearGradient>
    
    <!-- Bottom Edge Glow -->
    <linearGradient id="bottomGlow" x1="0%" y1="0%" x2="0%" y2="100%">
      <stop offset="0%" stop-color="rgba(0,0,0,0)"/>
      <stop offset="80%" stop-color="rgba(0,0,0,0)"/>
      <stop offset="100%" stop-color="rgba(0,0,0,0.15)"/>
    </linearGradient>
    
    <!-- Soft Drop Shadow -->
    <filter id="shadow" x="-20%" y="-20%" width="140%" height="140%">
      <feDropShadow dx="3" dy="5" stdDeviation="4" flood-color="#003300" flood-opacity="0.35"/>
    </filter>
    
    <!-- Candy clip path for stripes -->
    <clipPath id="candyClip">
      <rect x="25" y="25" width="150" height="150" rx="45" ry="45"/>
    </clipPath>
  </defs>

  <!-- Candy Shadow -->
  <rect x="28" y="32" width="144" height="144" rx="45" ry="45" 
        fill="rgba(0,0,0,0.15)" filter="url(#shadow)"/>

  <!-- Main Candy Body - Rounded Square with Soft Puffed Edges -->
  <rect x="25" y="25" width="150" height="150" rx="45" ry="45" 
        fill="url(#candyGradient)" 
        stroke="#006600" 
        stroke-width="2.5" />

  <!-- Horizontal White Stripes -->
  <g clip-path="url(#candyClip)">
    <!-- Stripe 1 -->
    <rect x="20" y="38" width="160" height="5" fill="#FFFFFF" opacity="0.85"/>
    <!-- Stripe 2 -->
    <rect x="20" y="50" width="160" height="5" fill="#FFFFFF" opacity="0.9"/>
    <!-- Stripe 3 -->
    <rect x="20" y="62" width="160" height="5" fill="#FFFFFF" opacity="0.85"/>
    <!-- Stripe 4 -->
    <rect x="20" y="74" width="160" height="5" fill="#FFFFFF" opacity="0.9"/>
    <!-- Stripe 5 -->
    <rect x="20" y="86" width="160" height="5" fill="#FFFFFF" opacity="0.85"/>
    <!-- Stripe 6 -->
    <rect x="20" y="98" width="160" height="5" fill="#FFFFFF" opacity="0.9"/>
    <!-- Stripe 7 -->
    <rect x="20" y="110" width="160" height="5" fill="#FFFFFF" opacity="0.85"/>
    <!-- Stripe 8 -->
    <rect x="20" y="122" width="160" height="5" fill="#FFFFFF" opacity="0.9"/>
    <!-- Stripe 9 -->
    <rect x="20" y="134" width="160" height="5" fill="#FFFFFF" opacity="0.85"/>
    <!-- Stripe 10 -->
    <rect x="20" y="146" width="160" height="5" fill="#FFFFFF" opacity="0.8"/>
  </g>

  <!-- Primary Glossy Highlight (Upper-Left Area) -->
  <path d="M 55,35 
           Q 75,30 100,35 
           Q 120,38 130,48 
           Q 110,42 85,40 
           Q 60,38 55,35 Z" 
        fill="url(#primaryShine)"/>

  <!-- Large Smooth Shine Overlay -->
  <ellipse cx="70" cy="60" rx="35" ry="22" 
           fill="url(#primaryShine)" 
           transform="rotate(-20, 70, 60)" />

  <!-- Subtle Side Reflection on Right Edge -->
  <rect x="25" y="25" width="150" height="150" rx="45" ry="45" 
        fill="url(#sideReflection)" />

  <!-- Bottom Edge Darker Glow for Depth -->
  <rect x="25" y="25" width="150" height="150" rx="45" ry="45" 
        fill="url(#bottomGlow)" />

  <!-- Small White Shine Dot near Top-Right -->
  <circle cx="130" cy="55" r="6" fill="white" fill-opacity="0.85"/>
  <circle cx="133" cy="58" r="3" fill="white" fill-opacity="0.5"/>

  <!-- Sugar Crystal Sparkles -->
  <circle cx="60" cy="140" r="2.5" fill="white" fill-opacity="0.6"/>
  <circle cx="145" cy="125" r="2" fill="white" fill-opacity="0.5"/>
  <circle cx="50" cy="90" r="1.5" fill="white" fill-opacity="0.4"/>
  <circle cx="155" cy="90" r="1.5" fill="white" fill-opacity="0.4"/>
  <circle cx="85" cy="155" r="2" fill="white" fill-opacity="0.35"/>
  <circle cx="110" cy="148" r="1.5" fill="white" fill-opacity="0.3"/>

  <!-- Subtle Edge Highlight (Left/Top) -->
  <path d="M 70,25 
           C 90,25 110,27 125,32" 
        fill="none" 
        stroke="rgba(255,255,255,0.25)" 
        stroke-width="2" 
        stroke-linecap="round"/>
</svg>