<svg width="500" height="500" viewBox="0 0 500 500" xmlns="http://www.w3.org/2000/svg">
  <defs>
    <!-- Semi-transparent Green Wrapper Gradient -->
    <linearGradient id="wrapperGrad" x1="0%" y1="0%" x2="100%" y2="100%">
      <stop offset="0%" stop-color="#6bed00" stop-opacity="0.6"/>
      <stop offset="20%" stop-color="#49e000" stop-opacity="0.65"/>
      <stop offset="50%" stop-color="#2db200" stop-opacity="0.7"/>
      <stop offset="80%" stop-color="#1a7a00" stop-opacity="0.8"/>
      <stop offset="100%" stop-color="#0a4d00" stop-opacity="0.9"/>
    </linearGradient>

    <!-- Background gradient -->
    <linearGradient id="bgGrad" x1="0%" y1="0%" x2="100%" y2="100%">
      <stop offset="0%" stop-color="#0D1A0D"/>
      <stop offset="100%" stop-color="#1A2E1A"/>
    </linearGradient>

    <!-- Left vertical gold ribbon gradient -->
    <linearGradient id="goldLeft" x1="0%" y1="0%" x2="100%" y2="0%">
      <stop offset="0%" stop-color="#FFF8DC"/>
      <stop offset="20%" stop-color="#FFD700"/>
      <stop offset="50%" stop-color="#DAA520"/>
      <stop offset="80%" stop-color="#B8860B"/>
      <stop offset="100%" stop-color="#8B6914"/>
    </linearGradient>

    <!-- Right vertical gold ribbon gradient -->
    <linearGradient id="goldRight" x1="100%" y1="0%" x2="0%" y2="0%">
      <stop offset="0%" stop-color="#FFF8DC"/>
      <stop offset="20%" stop-color="#FFD700"/>
      <stop offset="50%" stop-color="#DAA520"/>
      <stop offset="80%" stop-color="#B8860B"/>
      <stop offset="100%" stop-color="#8B6914"/>
    </linearGradient>

    <!-- Inner green candy gradient -->
    <radialGradient id="candyGradient" cx="40%" cy="35%" r="65%" fx="35%" fy="30%">
      <stop offset="0%" stop-color="#a8ff4d"/>
      <stop offset="25%" stop-color="#6bed00"/>
      <stop offset="50%" stop-color="#49e000"/>
      <stop offset="75%" stop-color="#1a9e00"/>
      <stop offset="100%" stop-color="#008a00"/>
    </radialGradient>

    <!-- Glossy Primary Shine -->
    <radialGradient id="primaryShine" cx="30%" cy="25%" r="45%">
      <stop offset="0%" stop-color="white" stop-opacity="0.6"/>
      <stop offset="40%" stop-color="white" stop-opacity="0.2"/>
      <stop offset="100%" stop-color="white" stop-opacity="0"/>
    </radialGradient>

    <!-- Subtle Side Reflection -->
    <linearGradient id="sideReflection" x1="0%" y1="0%" x2="100%" y2="0%">
      <stop offset="85%" stop-color="white" stop-opacity="0"/>
      <stop offset="92%" stop-color="white" stop-opacity="0.12"/>
      <stop offset="100%" stop-color="white" stop-opacity="0"/>
    </linearGradient>

    <!-- Bottom Edge Glow -->
    <linearGradient id="bottomGlow" x1="0%" y1="0%" x2="0%" y2="100%">
      <stop offset="0%" stop-color="rgba(0,0,0,0)"/>
      <stop offset="80%" stop-color="rgba(0,0,0,0)"/>
      <stop offset="100%" stop-color="rgba(0,0,0,0.15)"/>
    </linearGradient>

    <!-- Center candy shadow -->
    <filter id="candyShadow" x="-20%" y="-20%" width="140%" height="140%">
      <feDropShadow dx="3" dy="5" stdDeviation="4" flood-color="#003300" flood-opacity="0.45"/>
    </filter>

    <!-- Wrapper drop shadow -->
    <filter id="wrapperShadow" x="-5%" y="-5%" width="110%" height="110%">
      <feDropShadow dx="4" dy="8" stdDeviation="8" flood-color="#000000" flood-opacity="0.5"/>
    </filter>
  </defs>

  <!-- Dark premium background - fills entire canvas -->
  <rect x="0" y="0" width="500" height="500" fill="url(#bgGrad)"/>

  <!-- Main candy wrapper body -->
  <g filter="url(#wrapperShadow)">
    
    <!-- Wrapper base shape - semi-transparent green -->
    <rect x="71" y="20" width="358" height="460" rx="20" ry="20" 
          fill="url(#wrapperGrad)" stroke="rgba(10,77,0,0.6)" stroke-width="3"/>

    <!-- Elegant gold outline border - inner -->
    <rect x="86" y="35" width="328" height="430" rx="15" ry="15" 
          fill="none" stroke="#FFD700" stroke-width="2" opacity="0.4"/>

    <!-- Second gold outline accent -->
    <rect x="94" y="43" width="312" height="414" rx="12" ry="12" 
          fill="none" stroke="#DAA520" stroke-width="1" opacity="0.25"/>

    <!-- ============================================ -->
    <!-- LEFT VERTICAL GOLD RIBBON - x=5 to x=70 -->
    <!-- ============================================ -->
    <g>
      <rect x="5" y="40" width="65" height="420" rx="6" fill="rgba(0,0,0,0.3)"/>
      <rect x="60" y="40" width="10" height="420" rx="4" fill="url(#goldLeft)" stroke="#8B6914" stroke-width="1"/>
      
      <path d="M 60,40 L 50,30 L 40,40 L 50,50 L 40,60 L 50,70 L 40,80 L 50,90 L 40,100 
               L 50,110 L 40,120 L 50,130 L 40,140 L 50,150 L 40,160 L 50,170 L 40,180 
               L 50,190 L 40,200 L 50,210 L 40,220 L 50,230 L 40,240 L 50,250 L 40,260 
               L 50,270 L 40,280 L 50,290 L 40,300 L 50,310 L 40,320 L 50,330 L 40,340 
               L 50,350 L 40,360 L 50,370 L 40,380 L 50,390 L 40,400 L 50,410 L 40,420 
               L 50,430 L 40,440 L 50,450 L 40,460 L 50,470 L 60,460 Z" 
            fill="url(#goldLeft)" stroke="#8B6914" stroke-width="1.5"/>
      
      <g stroke="rgba(255,255,255,0.35)" stroke-width="1" fill="none">
        <path d="M 50,30 L 40,40 L 50,50"/>
        <path d="M 50,70 L 40,80 L 50,90"/>
        <path d="M 50,110 L 40,120 L 50,130"/>
        <path d="M 50,150 L 40,160 L 50,170"/>
        <path d="M 50,190 L 40,200 L 50,210"/>
        <path d="M 50,230 L 40,240 L 50,250"/>
        <path d="M 50,270 L 40,280 L 50,290"/>
        <path d="M 50,310 L 40,320 L 50,330"/>
        <path d="M 50,350 L 40,360 L 50,370"/>
        <path d="M 50,390 L 40,400 L 50,410"/>
        <path d="M 50,430 L 40,440 L 50,450"/>
        <path d="M 50,470 L 60,460 L 50,450"/>
      </g>
      
      <rect x="55" y="40" width="4" height="420" fill="rgba(255,255,255,0.2)" rx="2"/>
      
      <g stroke="rgba(0,0,0,0.15)" stroke-width="0.8" fill="none">
        <line x1="40" y1="40" x2="40" y2="460"/>
        <line x1="50" y1="40" x2="50" y2="460"/>
      </g>
    </g>

    <!-- ============================================ -->
    <!-- RIGHT VERTICAL GOLD RIBBON - x=430 to x=495 -->
    <!-- ============================================ -->
    <g>
      <rect x="430" y="40" width="65" height="420" rx="6" fill="rgba(0,0,0,0.3)"/>
      <rect x="430" y="40" width="10" height="420" rx="4" fill="url(#goldRight)" stroke="#8B6914" stroke-width="1"/>
      
      <path d="M 440,40 L 450,30 L 460,40 L 450,50 L 460,60 L 450,70 L 460,80 L 450,90 L 460,100 
               L 450,110 L 460,120 L 450,130 L 460,140 L 450,150 L 460,160 L 450,170 L 460,180 
               L 450,190 L 460,200 L 450,210 L 460,220 L 450,230 L 460,240 L 450,250 L 460,260 
               L 450,270 L 460,280 L 450,290 L 460,300 L 450,310 L 460,320 L 450,330 L 460,340 
               L 450,350 L 460,360 L 450,370 L 460,380 L 450,390 L 460,400 L 450,410 L 460,420 
               L 450,430 L 460,440 L 450,450 L 460,460 L 450,470 L 440,460 Z" 
            fill="url(#goldRight)" stroke="#8B6914" stroke-width="1.5"/>
      
      <g stroke="rgba(255,255,255,0.35)" stroke-width="1" fill="none">
        <path d="M 450,30 L 460,40 L 450,50"/>
        <path d="M 450,70 L 460,80 L 450,90"/>
        <path d="M 450,110 L 460,120 L 450,130"/>
        <path d="M 450,150 L 460,160 L 450,170"/>
        <path d="M 450,190 L 460,200 L 450,210"/>
        <path d="M 450,230 L 460,240 L 450,250"/>
        <path d="M 450,270 L 460,280 L 450,290"/>
        <path d="M 450,310 L 460,320 L 450,330"/>
        <path d="M 450,350 L 460,360 L 450,370"/>
        <path d="M 450,390 L 460,400 L 450,410"/>
        <path d="M 450,430 L 460,440 L 450,450"/>
        <path d="M 450,470 L 440,460 L 450,450"/>
      </g>
      
      <rect x="441" y="40" width="4" height="420" fill="rgba(255,255,255,0.2)" rx="2"/>
      
      <g stroke="rgba(0,0,0,0.15)" stroke-width="0.8" fill="none">
        <line x1="450" y1="40" x2="450" y2="460"/>
        <line x1="460" y1="40" x2="460" y2="460"/>
      </g>
    </g>

    <!-- ============================================ -->
    <!-- CENTER GREEN ROUNDED-SQUARE CANDY -->
    <!-- ============================================ -->
    <g transform="translate(250, 260) scale(1.4) translate(-100, -100)" filter="url(#candyShadow)">
      
      <!-- Candy Shadow -->
      <rect x="28" y="32" width="144" height="144" rx="45" ry="45" 
            fill="rgba(0,0,0,0.15)"/>
      
      <!-- Main Candy Body - Rounded Square with Soft Puffed Edges -->
      <rect x="25" y="25" width="150" height="150" rx="45" ry="45" 
            fill="url(#candyGradient)" 
            stroke="#006600" 
            stroke-width="2.5" />
      
      <!-- Primary Glossy Highlight (Upper-Left Area) -->
      <path d="M 55,35 
               Q 75,30 100,35 
               Q 120,38 130,48 
               Q 110,42 85,40 
               Q 60,38 55,35 Z" 
            fill="url(#primaryShine)"/>
      
      <!-- Large Smooth Shine Overlay -->
      <ellipse cx="70" cy="60" rx="35" ry="22" 
               fill="url(#primaryShine)" 
               transform="rotate(-20, 70, 60)" />
      
      <!-- Subtle Side Reflection on Right Edge -->
      <rect x="25" y="25" width="150" height="150" rx="45" ry="45" 
            fill="url(#sideReflection)" />
      
      <!-- Bottom Edge Darker Glow for Depth -->
      <rect x="25" y="25" width="150" height="150" rx="45" ry="45" 
            fill="url(#bottomGlow)" />
      
      <!-- Small White Shine Dot near Top-Right -->
      <circle cx="130" cy="55" r="6" fill="white" fill-opacity="0.85"/>
      <circle cx="133" cy="58" r="3" fill="white" fill-opacity="0.5"/>
      
      <!-- Sugar Crystal Sparkles -->
      <circle cx="60" cy="140" r="2.5" fill="white" fill-opacity="0.6"/>
      <circle cx="145" cy="125" r="2" fill="white" fill-opacity="0.5"/>
      <circle cx="50" cy="90" r="1.5" fill="white" fill-opacity="0.4"/>
      <circle cx="155" cy="90" r="1.5" fill="white" fill-opacity="0.4"/>
      <circle cx="85" cy="155" r="2" fill="white" fill-opacity="0.35"/>
      <circle cx="110" cy="148" r="1.5" fill="white" fill-opacity="0.3"/>
      
      <!-- Subtle Edge Highlight (Left/Top) -->
      <path d="M 70,25 
               C 90,25 110,27 125,32" 
            fill="none" 
            stroke="rgba(255,255,255,0.25)" 
            stroke-width="2" 
            stroke-linecap="round"/>
    </g>

    <!-- ============================================ -->
    <!-- ADDITIONAL DETAILS -->
    <!-- ============================================ -->
    
    <!-- Subtle wrapper texture lines -->
    <g opacity="0.03">
      <line x1="120" y1="200" x2="120" y2="330" stroke="#000" stroke-width="1"/>
      <line x1="180" y1="200" x2="180" y2="330" stroke="#000" stroke-width="1"/>
      <line x1="320" y1="200" x2="320" y2="330" stroke="#000" stroke-width="1"/>
      <line x1="380" y1="200" x2="380" y2="330" stroke="#000" stroke-width="1"/>
    </g>

    <!-- Top edge shine -->
    <rect x="73" y="22" width="354" height="5" rx="2.5" fill="rgba(255,255,255,0.1)"/>

    <!-- Bottom edge shadow -->
    <rect x="73" y="475" width="354" height="5" rx="2.5" fill="rgba(0,0,0,0.25)"/>

  </g>

  <!-- Premium corner accents -->
  <g fill="none" stroke="#FFD700" stroke-width="2" opacity="0.4">
    <path d="M 5,20 L 5,5 L 20,5"/>
    <path d="M 495,20 L 495,5 L 480,5"/>
    <path d="M 5,480 L 5,495 L 20,495"/>
    <path d="M 495,480 L 495,495 L 480,495"/>
  </g>
</svg>