<svg width="500" height="500" viewBox="0 0 500 500" xmlns="http://www.w3.org/2000/svg">
  <defs>
    <!-- Semi-transparent Purple Wrapper Gradient -->
    <linearGradient id="wrapperGrad" x1="0%" y1="0%" x2="100%" y2="100%">
      <stop offset="0%" stop-color="#D580FF" stop-opacity="0.55"/>
      <stop offset="20%" stop-color="#B84CFF" stop-opacity="0.6"/>
      <stop offset="50%" stop-color="#9B59B6" stop-opacity="0.65"/>
      <stop offset="80%" stop-color="#7D3C98" stop-opacity="0.75"/>
      <stop offset="100%" stop-color="#6C3483" stop-opacity="0.85"/>
    </linearGradient>

    <!-- Background gradient -->
    <linearGradient id="bgGrad" x1="0%" y1="0%" x2="100%" y2="100%">
      <stop offset="0%" stop-color="#0D0D1A"/>
      <stop offset="100%" stop-color="#1A1A2E"/>
    </linearGradient>

    <!-- Left vertical gold ribbon gradient -->
    <linearGradient id="goldLeft" x1="0%" y1="0%" x2="100%" y2="0%">
      <stop offset="0%" stop-color="#FFF8DC"/>
      <stop offset="20%" stop-color="#FFD700"/>
      <stop offset="50%" stop-color="#DAA520"/>
      <stop offset="80%" stop-color="#B8860B"/>
      <stop offset="100%" stop-color="#8B6914"/>
    </linearGradient>

    <!-- Right vertical gold ribbon gradient -->
    <linearGradient id="goldRight" x1="100%" y1="0%" x2="0%" y2="0%">
      <stop offset="0%" stop-color="#FFF8DC"/>
      <stop offset="20%" stop-color="#FFD700"/>
      <stop offset="50%" stop-color="#DAA520"/>
      <stop offset="80%" stop-color="#B8860B"/>
      <stop offset="100%" stop-color="#8B6914"/>
    </linearGradient>

    <!-- Inner purple candy gradient -->
    <radialGradient id="candyGrad" cx="40%" cy="35%" r="60%">
      <stop offset="0%" stop-color="#D580FF"/>
      <stop offset="40%" stop-color="#9B59B6"/>
      <stop offset="100%" stop-color="#6C3483"/>
    </radialGradient>

    <!-- Center candy shadow -->
    <filter id="candyShadow" x="-20%" y="-20%" width="140%" height="140%">
      <feDropShadow dx="3" dy="5" stdDeviation="4" flood-color="#1A0033" flood-opacity="0.45"/>
    </filter>

    <!-- Wrapper drop shadow -->
    <filter id="wrapperShadow" x="-5%" y="-5%" width="110%" height="110%">
      <feDropShadow dx="4" dy="8" stdDeviation="8" flood-color="#000000" flood-opacity="0.5"/>
    </filter>
  </defs>

  <!-- Dark premium background - fills entire canvas -->
  <rect x="0" y="0" width="500" height="500" fill="url(#bgGrad)"/>

  <!-- Main candy wrapper body -->
  <g filter="url(#wrapperShadow)">
    
    <!-- Wrapper base shape - semi-transparent purple -->
    <rect x="71" y="20" width="358" height="460" rx="20" ry="20" 
          fill="url(#wrapperGrad)" stroke="rgba(108,52,131,0.6)" stroke-width="3"/>

    <!-- Elegant gold outline border - inner -->
    <rect x="86" y="35" width="328" height="430" rx="15" ry="15" 
          fill="none" stroke="#FFD700" stroke-width="2" opacity="0.4"/>

    <!-- Second gold outline accent -->
    <rect x="94" y="43" width="312" height="414" rx="12" ry="12" 
          fill="none" stroke="#DAA520" stroke-width="1" opacity="0.25"/>

    <!-- ============================================ -->
    <!-- LEFT VERTICAL GOLD RIBBON - x=5 to x=70 -->
    <!-- ============================================ -->
    <g>
      <rect x="5" y="40" width="65" height="420" rx="6" fill="rgba(0,0,0,0.3)"/>
      <rect x="60" y="40" width="10" height="420" rx="4" fill="url(#goldLeft)" stroke="#8B6914" stroke-width="1"/>
      
      <path d="M 60,40 L 50,30 L 40,40 L 50,50 L 40,60 L 50,70 L 40,80 L 50,90 L 40,100 
               L 50,110 L 40,120 L 50,130 L 40,140 L 50,150 L 40,160 L 50,170 L 40,180 
               L 50,190 L 40,200 L 50,210 L 40,220 L 50,230 L 40,240 L 50,250 L 40,260 
               L 50,270 L 40,280 L 50,290 L 40,300 L 50,310 L 40,320 L 50,330 L 40,340 
               L 50,350 L 40,360 L 50,370 L 40,380 L 50,390 L 40,400 L 50,410 L 40,420 
               L 50,430 L 40,440 L 50,450 L 40,460 L 50,470 L 60,460 Z" 
            fill="url(#goldLeft)" stroke="#8B6914" stroke-width="1.5"/>
      
      <g stroke="rgba(255,255,255,0.35)" stroke-width="1" fill="none">
        <path d="M 50,30 L 40,40 L 50,50"/>
        <path d="M 50,70 L 40,80 L 50,90"/>
        <path d="M 50,110 L 40,120 L 50,130"/>
        <path d="M 50,150 L 40,160 L 50,170"/>
        <path d="M 50,190 L 40,200 L 50,210"/>
        <path d="M 50,230 L 40,240 L 50,250"/>
        <path d="M 50,270 L 40,280 L 50,290"/>
        <path d="M 50,310 L 40,320 L 50,330"/>
        <path d="M 50,350 L 40,360 L 50,370"/>
        <path d="M 50,390 L 40,400 L 50,410"/>
        <path d="M 50,430 L 40,440 L 50,450"/>
        <path d="M 50,470 L 60,460 L 50,450"/>
      </g>
      
      <rect x="55" y="40" width="4" height="420" fill="rgba(255,255,255,0.2)" rx="2"/>
      
      <g stroke="rgba(0,0,0,0.15)" stroke-width="0.8" fill="none">
        <line x1="40" y1="40" x2="40" y2="460"/>
        <line x1="50" y1="40" x2="50" y2="460"/>
      </g>
    </g>

    <!-- ============================================ -->
    <!-- RIGHT VERTICAL GOLD RIBBON - x=430 to x=495 -->
    <!-- ============================================ -->
    <g>
      <rect x="430" y="40" width="65" height="420" rx="6" fill="rgba(0,0,0,0.3)"/>
      <rect x="430" y="40" width="10" height="420" rx="4" fill="url(#goldRight)" stroke="#8B6914" stroke-width="1"/>
      
      <path d="M 440,40 L 450,30 L 460,40 L 450,50 L 460,60 L 450,70 L 460,80 L 450,90 L 460,100 
               L 450,110 L 460,120 L 450,130 L 460,140 L 450,150 L 460,160 L 450,170 L 460,180 
               L 450,190 L 460,200 L 450,210 L 460,220 L 450,230 L 460,240 L 450,250 L 460,260 
               L 450,270 L 460,280 L 450,290 L 460,300 L 450,310 L 460,320 L 450,330 L 460,340 
               L 450,350 L 460,360 L 450,370 L 460,380 L 450,390 L 460,400 L 450,410 L 460,420 
               L 450,430 L 460,440 L 450,450 L 460,460 L 450,470 L 440,460 Z" 
            fill="url(#goldRight)" stroke="#8B6914" stroke-width="1.5"/>
      
      <g stroke="rgba(255,255,255,0.35)" stroke-width="1" fill="none">
        <path d="M 450,30 L 460,40 L 450,50"/>
        <path d="M 450,70 L 460,80 L 450,90"/>
        <path d="M 450,110 L 460,120 L 450,130"/>
        <path d="M 450,150 L 460,160 L 450,170"/>
        <path d="M 450,190 L 460,200 L 450,210"/>
        <path d="M 450,230 L 460,240 L 450,250"/>
        <path d="M 450,270 L 460,280 L 450,290"/>
        <path d="M 450,310 L 460,320 L 450,330"/>
        <path d="M 450,350 L 460,360 L 450,370"/>
        <path d="M 450,390 L 460,400 L 450,410"/>
        <path d="M 450,430 L 460,440 L 450,450"/>
        <path d="M 450,470 L 440,460 L 450,450"/>
      </g>
      
      <rect x="441" y="40" width="4" height="420" fill="rgba(255,255,255,0.2)" rx="2"/>
      
      <g stroke="rgba(0,0,0,0.15)" stroke-width="0.8" fill="none">
        <line x1="450" y1="40" x2="450" y2="460"/>
        <line x1="460" y1="40" x2="460" y2="460"/>
      </g>
    </g>

    <!-- ============================================ -->
    <!-- CENTER PURPLE STAR-SHAPED CANDY -->
    <!-- ============================================ -->
    <g transform="translate(250, 255) scale(1.35) translate(-100, -100)" filter="url(#candyShadow)">
      
      <!-- Candy body with gradient -->
      <path style="fill:url(#candyGrad);" d="M181.3,146.4c8-13.9,7.9-31.3-0.1-44.3c-0.2-0.3-0.4-0.7-0.7-1c-0.7-1.1-0.7-2.4,0-3.5c0.2-0.3,0.4-0.7,0.6-1c7.8-12.9,7.6-30-0.4-43.7c-5.4-9.2-14-16.3-23.8-19.6c-4.3-1.5-8.7-2.2-13.1-2.2c-0.4,0-0.7,0-1.1,0c-0.4,0-0.8,0-1.2,0.1c-1.3,0.1-2.5-0.6-3-1.8c-0.2-0.3-0.3-0.6-0.5-1l-0.1-0.2C131,14.9,116,6.4,100,6.4c-16.2,0-31.2,8.6-38.4,21.9l-0.1,0.3c-0.2,0.3-0.3,0.6-0.5,0.9c-0.6,1.1-1.7,1.8-3,1.7c-0.4,0-0.8,0-1.2,0c-0.3,0-0.5,0-0.7,0c-4.5,0-9.1,0.8-13.5,2.4c-9.8,3.4-18.5,10.7-23.8,20c-8,13.9-7.9,31.3,0.1,44.3c0.2,0.4,0.4,0.7,0.7,1c0.7,1.1,0.7,2.4,0,3.5c-0.2,0.3-0.4,0.7-0.6,1c-7.8,12.9-7.6,30,0.4,43.7c5.4,9.2,14,16.3,23.8,19.6c4.7,1.6,9.5,2.3,14.2,2.2c0.4,0,0.8,0,1.2-0.1c0.1,0,0.1,0,0.2,0c1.2,0,2.3,0.7,2.9,1.8c0.2,0.3,0.3,0.6,0.5,0.9l0.1,0.2C69,185.1,84,193.6,100,193.6c16.2,0,31.2-8.6,38.4-21.9l0.1-0.3c0.2-0.3,0.3-0.6,0.5-0.9c0.6-1.1,1.7-1.8,3-1.7c0.4,0,0.8,0,1.2,0c0.3,0,0.5,0,0.7,0c4.5,0,9.1-0.8,13.6-2.4C167.3,163,176,155.6,181.3,146.4z"></path>
      
      <!-- Shine highlight overlay -->
      <ellipse cx="80" cy="70" rx="35" ry="25" fill="rgba(255,255,255,0.15)" transform="rotate(-30, 80, 70)"/>
      
      <!-- Center candy details -->
      <path style="fill:#D580FF;" d="M100,85.4c-8,0-14.6,6.5-14.6,14.6s6.5,14.6,14.6,14.6 s14.6-6.5,14.6-14.6S108,85.4,100,85.4z"></path>
      <path style="fill:#6C3483;" d="M100,79c-11.6,0-21,9.4-21,21s9.4,21,21,21s21-9.4,21-21S111.6,79,100,79z M100,114.6c-8,0-14.6-6.5-14.6-14.6s6.5-14.6,14.6-14.6s14.6,6.5,14.6,14.6S108,114.6,100,114.6z"></path>
      
      <!-- Sugar sparkles -->
      <circle cx="55" cy="50" r="1.5" fill="white" opacity="0.8"/>
      <circle cx="145" cy="55" r="1.5" fill="white" opacity="0.8"/>
      <circle cx="60" cy="140" r="1.5" fill="white" opacity="0.8"/>
      <circle cx="140" cy="145" r="1.5" fill="white" opacity="0.8"/>
      <circle cx="80" cy="35" r="1" fill="white" opacity="0.6"/>
      <circle cx="120" cy="160" r="1" fill="white" opacity="0.6"/>
      <circle cx="70" cy="90" r="1" fill="white" opacity="0.5"/>
      <circle cx="130" cy="100" r="1" fill="white" opacity="0.5"/>
      
      <!-- Wrapper twist lines -->
      <path style="fill:none; stroke:#D580FF; stroke-width:2.5;" d="M68,40 Q60,30 55,35"></path>
      <path style="fill:none; stroke:#D580FF; stroke-width:2.5;" d="M132,40 Q140,30 145,35"></path>
      <path style="fill:none; stroke:#6C3483; stroke-width:2;" d="M65,42 Q58,33 52,38"></path>
      <path style="fill:none; stroke:#6C3483; stroke-width:2;" d="M135,42 Q142,33 148,38"></path>
    </g>

    <!-- ============================================ -->
    <!-- ADDITIONAL DETAILS -->
    <!-- ============================================ -->
    
    <!-- Subtle wrapper texture lines -->
    <g opacity="0.03">
      <line x1="120" y1="200" x2="120" y2="330" stroke="#000" stroke-width="1"/>
      <line x1="180" y1="200" x2="180" y2="330" stroke="#000" stroke-width="1"/>
      <line x1="320" y1="200" x2="320" y2="330" stroke="#000" stroke-width="1"/>
      <line x1="380" y1="200" x2="380" y2="330" stroke="#000" stroke-width="1"/>
    </g>

    <!-- Top edge shine -->
    <rect x="73" y="22" width="354" height="5" rx="2.5" fill="rgba(255,255,255,0.1)"/>

    <!-- Bottom edge shadow -->
    <rect x="73" y="475" width="354" height="5" rx="2.5" fill="rgba(0,0,0,0.25)"/>

  </g>

  <!-- Premium corner accents -->
  <g fill="none" stroke="#FFD700" stroke-width="2" opacity="0.4">
    <path d="M 5,20 L 5,5 L 20,5"/>
    <path d="M 495,20 L 495,5 L 480,5"/>
    <path d="M 5,480 L 5,495 L 20,495"/>
    <path d="M 495,480 L 495,495 L 480,495"/>
  </g>
</svg>